<mxfile host="app.diagrams.net" modified="2024-04-28T07:11:51.277Z" agent="Mozilla/5.0 (Macintosh; Intel Mac OS X 10_15_7) AppleWebKit/605.1.15 (KHTML, like Gecko) Version/17.3 Safari/605.1.15" etag="u6cKJsy3WxvBRV9tjyFb" version="24.3.1" type="device">
  <diagram name="Page-1" id="bgTe0qrCUNYbWHAVTRMz">
    <mxGraphModel dx="1026" dy="691" grid="1" gridSize="10" guides="1" tooltips="1" connect="1" arrows="1" fold="1" page="1" pageScale="1" pageWidth="827" pageHeight="1169" math="0" shadow="0">
      <root>
        <mxCell id="0" />
        <mxCell id="1" parent="0" />
        <mxCell id="6_3eGJA4ZPej89J4HKCx-1" value="EventBridge Scheduler (daily)" style="sketch=0;outlineConnect=0;fontColor=#232F3E;gradientColor=none;fillColor=#E7157B;strokeColor=none;dashed=0;verticalLabelPosition=bottom;verticalAlign=top;align=center;html=1;fontSize=12;fontStyle=0;aspect=fixed;pointerEvents=1;shape=mxgraph.aws4.eventbridge_scheduler;" vertex="1" parent="1">
          <mxGeometry x="200" y="180" width="78" height="78" as="geometry" />
        </mxCell>
        <mxCell id="6_3eGJA4ZPej89J4HKCx-6" value="User Mailbox" style="aspect=fixed;sketch=0;html=1;dashed=0;whitespace=wrap;fillColor=#2875E2;strokeColor=#ffffff;points=[[0.005,0.63,0],[0.1,0.2,0],[0.9,0.2,0],[0.5,0,0],[0.995,0.63,0],[0.72,0.99,0],[0.5,1,0],[0.28,0.99,0]];shape=mxgraph.kubernetes.icon2;prIcon=user" vertex="1" parent="1">
          <mxGeometry x="614" y="520" width="50" height="48" as="geometry" />
        </mxCell>
        <mxCell id="6_3eGJA4ZPej89J4HKCx-8" value="" style="dashed=0;html=1;shape=mxgraph.aws3.virtual_private_cloud;fillColor=#F58536;gradientColor=none;dashed=0;" vertex="1" parent="1">
          <mxGeometry x="180" y="119" width="52" height="36" as="geometry" />
        </mxCell>
        <mxCell id="6_3eGJA4ZPej89J4HKCx-9" value="VPC" style="points=[[0,0],[0.25,0],[0.5,0],[0.75,0],[1,0],[1,0.25],[1,0.5],[1,0.75],[1,1],[0.75,1],[0.5,1],[0.25,1],[0,1],[0,0.75],[0,0.5],[0,0.25]];outlineConnect=0;gradientColor=none;html=1;whiteSpace=wrap;fontSize=12;fontStyle=0;container=1;pointerEvents=0;collapsible=0;recursiveResize=0;shape=mxgraph.aws4.group;grIcon=mxgraph.aws4.group_vpc2;strokeColor=#8C4FFF;fillColor=none;verticalAlign=top;align=left;spacingLeft=30;fontColor=#AAB7B8;dashed=0;" vertex="1" parent="1">
          <mxGeometry x="148" y="80" width="622" height="390" as="geometry" />
        </mxCell>
        <mxCell id="6_3eGJA4ZPej89J4HKCx-11" style="edgeStyle=orthogonalEdgeStyle;rounded=0;orthogonalLoop=1;jettySize=auto;html=1;" edge="1" parent="6_3eGJA4ZPej89J4HKCx-9" source="6_3eGJA4ZPej89J4HKCx-3" target="6_3eGJA4ZPej89J4HKCx-4">
          <mxGeometry relative="1" as="geometry" />
        </mxCell>
        <mxCell id="6_3eGJA4ZPej89J4HKCx-3" value="checkConvertionRateEvent SQS" style="sketch=0;points=[[0,0,0],[0.25,0,0],[0.5,0,0],[0.75,0,0],[1,0,0],[0,1,0],[0.25,1,0],[0.5,1,0],[0.75,1,0],[1,1,0],[0,0.25,0],[0,0.5,0],[0,0.75,0],[1,0.25,0],[1,0.5,0],[1,0.75,0]];outlineConnect=0;fontColor=#232F3E;fillColor=#E7157B;strokeColor=#ffffff;dashed=0;verticalLabelPosition=bottom;verticalAlign=top;align=center;html=1;fontSize=12;fontStyle=0;aspect=fixed;shape=mxgraph.aws4.resourceIcon;resIcon=mxgraph.aws4.sqs;" vertex="1" parent="6_3eGJA4ZPej89J4HKCx-9">
          <mxGeometry x="262" y="80" width="78" height="78" as="geometry" />
        </mxCell>
        <mxCell id="6_3eGJA4ZPej89J4HKCx-18" style="edgeStyle=orthogonalEdgeStyle;rounded=0;orthogonalLoop=1;jettySize=auto;html=1;" edge="1" parent="6_3eGJA4ZPej89J4HKCx-9" source="6_3eGJA4ZPej89J4HKCx-4" target="6_3eGJA4ZPej89J4HKCx-5">
          <mxGeometry relative="1" as="geometry" />
        </mxCell>
        <mxCell id="6_3eGJA4ZPej89J4HKCx-4" value="checkConvertionRate Lambda" style="sketch=0;outlineConnect=0;fontColor=#232F3E;gradientColor=none;fillColor=#7AA116;strokeColor=none;dashed=0;verticalLabelPosition=bottom;verticalAlign=top;align=center;html=1;fontSize=12;fontStyle=0;aspect=fixed;pointerEvents=1;shape=mxgraph.aws4.lambda_function;" vertex="1" parent="6_3eGJA4ZPej89J4HKCx-9">
          <mxGeometry x="452" y="80" width="78" height="78" as="geometry" />
        </mxCell>
        <mxCell id="6_3eGJA4ZPej89J4HKCx-5" value="sendUserNotification SNS" style="sketch=0;points=[[0,0,0],[0.25,0,0],[0.5,0,0],[0.75,0,0],[1,0,0],[0,1,0],[0.25,1,0],[0.5,1,0],[0.75,1,0],[1,1,0],[0,0.25,0],[0,0.5,0],[0,0.75,0],[1,0.25,0],[1,0.5,0],[1,0.75,0]];outlineConnect=0;fontColor=#232F3E;fillColor=#E7157B;strokeColor=#ffffff;dashed=0;verticalLabelPosition=bottom;verticalAlign=top;align=center;html=1;fontSize=12;fontStyle=0;aspect=fixed;shape=mxgraph.aws4.resourceIcon;resIcon=mxgraph.aws4.sns;" vertex="1" parent="6_3eGJA4ZPej89J4HKCx-9">
          <mxGeometry x="452" y="250" width="78" height="78" as="geometry" />
        </mxCell>
        <mxCell id="6_3eGJA4ZPej89J4HKCx-10" style="edgeStyle=orthogonalEdgeStyle;rounded=0;orthogonalLoop=1;jettySize=auto;html=1;entryX=0;entryY=0.5;entryDx=0;entryDy=0;entryPerimeter=0;" edge="1" parent="1" source="6_3eGJA4ZPej89J4HKCx-1" target="6_3eGJA4ZPej89J4HKCx-3">
          <mxGeometry relative="1" as="geometry" />
        </mxCell>
        <mxCell id="6_3eGJA4ZPej89J4HKCx-12" value="&lt;div&gt;&lt;br&gt;&lt;/div&gt;&lt;div&gt;&lt;br&gt;&lt;/div&gt;&lt;div&gt;&lt;br&gt;&lt;/div&gt;&lt;div&gt;&lt;br&gt;&lt;/div&gt;&lt;div&gt;&lt;br&gt;&lt;/div&gt;&lt;div&gt;&lt;br&gt;&lt;/div&gt;&lt;div&gt;Third-party finance API&lt;/div&gt;" style="aspect=fixed;sketch=0;html=1;dashed=0;whitespace=wrap;fillColor=#2875E2;strokeColor=#ffffff;points=[[0.005,0.63,0],[0.1,0.2,0],[0.9,0.2,0],[0.5,0,0],[0.995,0.63,0],[0.72,0.99,0],[0.5,1,0],[0.28,0.99,0]];shape=mxgraph.kubernetes.icon2;prIcon=api" vertex="1" parent="1">
          <mxGeometry x="900" y="195" width="50" height="48" as="geometry" />
        </mxCell>
        <mxCell id="6_3eGJA4ZPej89J4HKCx-13" style="edgeStyle=orthogonalEdgeStyle;rounded=0;orthogonalLoop=1;jettySize=auto;html=1;entryX=0.02;entryY=0.438;entryDx=0;entryDy=0;entryPerimeter=0;startArrow=classic;startFill=1;" edge="1" parent="1" source="6_3eGJA4ZPej89J4HKCx-4" target="6_3eGJA4ZPej89J4HKCx-12">
          <mxGeometry relative="1" as="geometry" />
        </mxCell>
        <mxCell id="6_3eGJA4ZPej89J4HKCx-19" style="edgeStyle=orthogonalEdgeStyle;rounded=0;orthogonalLoop=1;jettySize=auto;html=1;entryX=0.5;entryY=0;entryDx=0;entryDy=0;entryPerimeter=0;" edge="1" parent="1" source="6_3eGJA4ZPej89J4HKCx-5" target="6_3eGJA4ZPej89J4HKCx-6">
          <mxGeometry relative="1" as="geometry" />
        </mxCell>
      </root>
    </mxGraphModel>
  </diagram>
</mxfile>
